<svg xmlns="http://www.w3.org/2000/svg" xmlns:xlink="http://www.w3.org/1999/xlink" aria-hidden="true" role="img" class="iconify iconify--logos" width="31.88" height="32" preserveAspectRatio="xMidYMid meet" viewBox="0 0 256 257"><defs><linearGradient id="IconifyId1813088fe1fbc01fb466" x1="-.828%" x2="57.636%" y1="7.652%" y2="78.411%"><stop offset="0%" stop-color="#FF00DC"></stop><stop offset="100%" stop-color="#FF73FE"></stop></linearGradient><linearGradient id="IconifyId1813088fe1fbc01fb467" x1="43.376%" x2="50.316%" y1="2.242%" y2="89.03%"><stop offset="0%" stop-color="#FFEA83"></stop><stop offset="8.333%" stop-color="#FFDD35"></stop><stop offset="100%" stop-color="#FFA800"></stop></linearGradient></defs><path fill="url(#IconifyId1813088fe1fbc01fb466)" d="M128.001 0C92.703 0 63.094 19.476 45.905 48.247c-8.222 14.527-12.878 31.69-12.878 50.039c0 66.066 53.933 120 120 120c18.349 0 35.512-4.656 50.039-12.878c28.771-17.189 48.247-46.798 48.247-82.096c0-66.066-53.933-120-120-120Zm79.237 166.496c-1.002 8.649-7.209 15.45-15.288 16.718c-32.224 5.104-60.961-22.511-66.065-54.735c-1.002-8.649 7.209-15.45 15.288-16.718c8.08-1.268 15.288 5.134 16.291 13.783c3.134 22.876 22.102 40.502 45.264 40.502c7.27 0 14.138-1.57 20.517-4.411c8.08-3.134 17.413.065 20.548 8.145Z"></path><path fill="url(#IconifyId1813088fe1fbc01fb467)" d="M212.769 0c-8.649 0-15.45 6.801-16.718 15.288c-5.104 32.224 22.511 60.961 54.735 66.065c8.649 1.002 15.45-7.209 16.718-15.288c1.268-8.08-5.134-15.288-13.783-16.291c-22.876-3.134-40.502-22.102-40.502-45.264c0-7.27 1.57-14.138 4.411-20.517c3.134-8.08-.065-17.413-8.145-20.548Z"></path></svg>
